<?xml version="1.0" encoding="utf-8"?>
<!-- Generator: Adobe Illustrator 16.2.1, SVG Export Plug-In . SVG Version: 6.00 Build 0)  -->
<svg version="1.2" baseProfile="tiny" id="Layer_1" xmlns="http://www.w3.org/2000/svg" xmlns:xlink="http://www.w3.org/1999/xlink"
	 x="0px" y="0px" width="256px" height="256px" viewBox="0 0 256 256" xml:space="preserve">
<g>
	<path fill="#484F59" d="M164.215,41.315c-9.219-19.122-38.586-30.391-61.805-13.659s-14,44.391-2.73,55.657
		c11.268,11.27,21.728,23.062,24.925,33.805c1.145,3.846,0.435,13.338-0.683,16.732H128c-0.703-3.072-1.025-12.652,0-16.732
		c1.002-3.984,4.117-12.291,20.508-23.902C164.898,81.606,173.434,60.437,164.215,41.315z M108.691,67.439
		c0,0-4.053-4.1-4.215-13.171s7.705-6.051,9-2.163c1.297,3.888,5.742,16.63,18.863,15.334
		C132.34,67.439,119.058,73.919,108.691,67.439z"/>
	<path fill="#F666B4" d="M164.414,47.516c0.809,1.782-13.121,15.875-26.082,5.67l-2.43,1.296c0,0,2.27,6.803-3.4,10.367
		c0,0-9.232,1.457-13.769-6.804c-4.534-8.261-4.858-11.987-10.853-12.148c-5.994-0.162-5.67,9.07-4.211,14.902
		c1.457,5.831,6.641,20.733,19.761,26.726c13.12,5.996,24.136,2.918,27.214,0.812c0,0-18.228,12.83-24.278,25.586
		c-3.42-5.076-11.889-17.841-17.491-23.173c-5.753-5.475-15.572-13.753-18.488-27.846s2.754-34.341,29.156-41.144
		C145.945,14.957,164.574,41.198,164.414,47.516z"/>
	<g>
		<path fill="#B6BBC1" d="M165.385,50.756c-8.584,13.769-24.256,8.423-24.256,8.423c1.12,9.15-2.592,14.316-7.441,17.229l20.714,6.1
			c1.446-1.326,2.793-2.84,4.019-4.539C167.652,65.172,165.385,50.756,165.385,50.756z"/>
	</g>
	<g>
		<path fill="#B6BBC1" d="M131.299,74.493c0.847-0.394,1.638-0.849,2.338-1.383c6.154-4.697,4.859-13.282,4.859-13.282
			c-1.553,6.057-4.962,9.343-8.878,11.021L131.299,74.493z"/>
	</g>
	<g>
		<circle fill="#ECEEF0" cx="128.776" cy="41.198" r="4.439"/>
		<path fill="#484F59" d="M128.777,38.76c1.344,0,2.438,1.094,2.438,2.438s-1.094,2.439-2.438,2.439c-1.346,0-2.44-1.095-2.44-2.439
			S127.432,38.76,128.777,38.76 M128.777,36.76c-2.453,0-4.44,1.987-4.44,4.438c0,2.452,1.987,4.439,4.44,4.439
			c2.451,0,4.438-1.987,4.438-4.439C133.215,38.747,131.229,36.76,128.777,36.76L128.777,36.76z"/>
	</g>
	<g>
		<circle fill="#F6E066" cx="125.952" cy="139.169" r="5.994"/>
		<path fill="#484F59" d="M125.951,135.174c2.201,0,3.994,1.792,3.994,3.995c0,2.2-1.793,3.992-3.994,3.992
			s-3.993-1.792-3.993-3.992C121.958,136.966,123.75,135.174,125.951,135.174 M125.951,133.175c-3.311,0-5.993,2.684-5.993,5.994
			c0,3.309,2.683,5.992,5.993,5.992s5.994-2.684,5.994-5.992C131.945,135.858,129.262,133.175,125.951,133.175L125.951,133.175z"/>
	</g>
</g>
<g>
	<path fill="#484F59" d="M58.082,147.887c-2-1-4-1.4-5.801-1.4c-5.1,0-7.5,4.001-7.5,10.901v10.4h11.1v3.8h-11.1v44.203h-4.4
		v-58.703c0-9.501,4.3-14.401,11.9-14.401c2.2,0,4.801,0.6,7,1.601L58.082,147.887z"/>
	<path fill="#484F59" d="M64.079,167.788h3.8l0.4,8.9h0.3c3.2-5.9,7.901-10.101,13.601-10.101c1.801,0,3.201,0.2,4.801,1l-1,4
		c-1.6-0.6-2.5-0.8-4.4-0.8c-4.301,0-9.4,3.301-13.102,12.301v32.702h-4.399V167.788z"/>
	<path fill="#484F59" d="M122.619,185.689c0.2-7.301-1.9-15.201-11.301-15.201c-6.5,0-12.1,3.2-15.301,5.601l-2-3.301
		c3.4-2.399,10.001-6.2,17.801-6.2c11.401,0,15.201,8.2,15.201,18.501v30.702h-3.7l-0.5-6.2h-0.2c-4.9,3.9-10.7,7.4-17,7.4
		c-7.602,0-14.002-4.101-14.002-13.201C91.617,193.189,101.318,188.089,122.619,185.689z M106.318,213.19c5.5,0,10.4-2.7,16.301-7.8
		V189.09c-19.701,2.3-26.401,6.9-26.401,14.5C96.218,210.49,100.818,213.19,106.318,213.19z"/>
	<path fill="#484F59" d="M139.518,167.788h3.8l0.399,7.4h0.301c4.9-4.9,9.9-8.601,16.5-8.601c9.901,0,14.502,6,14.502,18.401v30.802
		h-4.4v-30.202c0-10.2-3.201-15.001-11.001-15.001c-5.7,0-9.801,3.001-15.7,9.001v36.202h-4.4V167.788z"/>
	<path fill="#484F59" d="M206.418,166.588c6.601,0,10.9,2.9,14.102,5.9l-2.601,3.101c-3.101-2.9-6.7-5.101-11.401-5.101
		c-9.801,0-17.4,8.7-17.4,21.401c0,12.601,6.9,21.201,17.4,21.201c5.101,0,9.501-2.5,12.801-5.5l2.301,3
		c-4.101,3.7-9.201,6.4-15.301,6.4c-12.4,0-21.802-9.2-21.802-25.102C184.517,175.789,194.717,166.588,206.418,166.588z"/>
</g>
</svg>
